<?xml version="1.0" encoding="utf-8"?>
<!-- Generator: Adobe Illustrator 16.0.0, SVG Export Plug-In . SVG Version: 6.00 Build 0)  -->
<!DOCTYPE svg PUBLIC "-//W3C//DTD SVG 1.1//EN" "http://www.w3.org/Graphics/SVG/1.1/DTD/svg11.dtd">
<svg version="1.1" id="Layer_1" xmlns="http://www.w3.org/2000/svg" xmlns:xlink="http://www.w3.org/1999/xlink" x="0px" y="0px"
	 width="1194px" height="444px" viewBox="0 0 1194 444" enable-background="new 0 0 1194 444" xml:space="preserve">
<g>
	<g>
		<text transform="matrix(1 0 0 1 104 404)" font-family="'Roboto-Regular'" font-size="66.745" letter-spacing="1">India’s Biggest NFT Marketplace</text>
	</g>
	<g>
		<path fill="#F25E25" d="M135.633,42.869v73.866c0,0,4.283-12.843,22.482-28.902c0,0,11.773-7.491,6.423-20.342
			c0,0-3.909-5.795-10.035-10.706C135.809,41.802,135.633,17.18,135.633,42.869z"/>
		<path fill="#BBF544" d="M172.031,76.059c0,0-2.143,8.563-10.704,12.842c0,0-22.482,11.779-24.624,53.532v55.664
			c0,0,16.059-33.188,49.246-47.102c0,0,20.339-7.493,20.339-22.483c0,0,1.069-16.061-16.058-32.113L172.031,76.059z"/>
		<path fill="#2D68E8" d="M211.64,129.582c0,0-3.212,16.059-22.48,22.484c0,0-54.597,23.551-52.456,74.934v49.246
			c0,0,17.127-33.185,50.316-46.035c0,0,42.82-18.196,44.962-40.676c0,0,3.211-18.199-6.423-36.4L211.64,129.582z"/>
		<path fill="#620FB1" d="M137.355,321.207c0,0-6.423-52.454,27.834-74.938c0,0,8.565-8.562,48.174-27.832
			c0,0,23.552-11.775,23.552-25.695c0,0,10.704,48.176-13.916,81.363C222.999,274.105,201.586,317.994,137.355,321.207z"/>
		<path fill="#620FB1" d="M134.913,321.207c0,0,6.422-52.454-27.836-74.938c0,0-8.564-8.562-48.173-27.832
			c0,0-23.551-11.775-23.551-25.695c0,0-10.705,48.176,13.916,81.363C49.27,274.105,70.682,317.994,134.913,321.207z"/>
	</g>
	<path fill="#3D4151" d="M508.114,191.273c0,77.103-58.173,127.002-126.663,127.002c-68.837,0-127.011-49.899-127.011-127.002
		c0-0.116,0.017-0.23,0.017-0.347h56.436c0,50.942,36.483,73.66,70.558,73.66c33.736,0,70.219-22.718,70.219-73.66
		c0-50.944-36.482-74-70.219-74c-34.075,0-70.558,23.065-70.558,74l-47.816-47.965c18.564-49.216,65.223-79.046,118.374-79.046
		C449.941,63.916,508.114,113.816,508.114,191.273z"/>
	<path fill="#3D4151" d="M676.998,69.078h54.383v155.924c0,61.268-43.025,93.63-96.724,93.63c-53.697,0-96.716-32.354-96.716-93.63
		v-34.075h54.377v29.599c0,29.6,16.529,44.399,42.339,44.399c25.82,0,42.341-14.8,42.341-44.399V69.078z"/>
	<polygon fill="#620FB1" points="592.318,69.078 592.318,190.919 537.941,136.368 537.941,69.078 	"/>
	<path fill="#3D4151" d="M949.422,241.175c0,38.212-32.016,77.101-90.182,77.101c-58.595,0-88.08-32.973-97.081-64.194
		l48.976-16.397c5.129,18.1,20.302,32.405,48.792,32.405c21.345,0,34.423-10.333,34.423-25.481c0-12.385-9.984-21.335-26.158-24.437
		l-33.389-6.196c-41.306-7.918-66.429-35.457-66.429-71.593c0-46.128,40.609-78.474,87.426-78.474
		c51.091,0,75.495,25.66,85.107,50.794l-48.824,16.346c-5.196-9.547-15.949-18.953-36.632-18.953
		c-20.302,0-33.389,12.732-33.389,26.16c0,11.695,7.231,20.308,24.099,23.401l32.694,6.196
		C925.324,176.465,949.422,206.413,949.422,241.175z"/>
	<polyline fill="#3D4151" points="1094.885,121.047 965.459,121.047 965.459,69.078 1170.267,69.078 1170.267,121.055 
		1094.885,121.055 	"/>
	<polyline fill="#620FB1" points="1094.885,121.055 1094.885,313.122 1040.502,313.122 1040.502,175.605 1094.885,121.047 	"/>
</g>
</svg>
